<svg width="32" height="32" viewBox="0 0 32 32" fill="none" xmlns="http://www.w3.org/2000/svg">
<path d="M0 16C0 7.16364 7.16364 0 16 0C24.8364 0 32 7.16364 32 16C32 24.8364 24.8364 32 16 32C7.16364 32 0 24.8364 0 16ZM23.8516 12.5382C24.11 12.2626 24.2511 11.8973 24.245 11.5196C24.2388 11.1419 24.086 10.7814 23.8188 10.5143C23.5516 10.2473 23.1909 10.0947 22.8132 10.0889C22.4355 10.083 22.0703 10.2243 21.7949 10.4829L13.0516 19.2247L10.2967 16.4713C10.0224 16.2063 9.65498 16.0597 9.2736 16.063C8.89222 16.0663 8.5274 16.2193 8.25772 16.489C7.98803 16.7587 7.83506 17.1235 7.83175 17.5049C7.82843 17.8862 7.97504 18.2537 8.24 18.528L13.0516 23.3396L23.8516 12.5396V12.5382Z" fill="black"/>
</svg>
