<svg width="22" height="22" viewBox="0 0 22 22" fill="none" xmlns="http://www.w3.org/2000/svg">
<path d="M11 0C8.08262 0 5.28473 1.15893 3.22183 3.22183C1.15893 5.28473 0 8.08262 0 11C0 13.9174 1.15893 16.7153 3.22183 18.7782C5.28473 20.8411 8.08262 22 11 22C13.9174 22 16.7153 20.8411 18.7782 18.7782C20.8411 16.7153 22 13.9174 22 11C22 8.08262 20.8411 5.28473 18.7782 3.22183C16.7153 1.15893 13.9174 0 11 0ZM16.045 15.866C15.9981 15.9429 15.9364 16.0098 15.8636 16.0629C15.7908 16.1159 15.7083 16.1541 15.6207 16.1753C15.5332 16.1965 15.4423 16.2002 15.3533 16.1862C15.2643 16.1723 15.1789 16.1409 15.102 16.094C12.519 14.515 9.268 14.159 5.439 15.034C5.2636 15.0695 5.08125 15.0351 4.93086 14.9381C4.78048 14.8411 4.67395 14.6892 4.63403 14.5147C4.5941 14.3403 4.62393 14.1571 4.71715 14.0043C4.81037 13.8516 4.9596 13.7413 5.133 13.697C9.323 12.739 12.918 13.151 15.817 14.923C15.8939 14.9699 15.9608 15.0316 16.0139 15.1044C16.0669 15.1772 16.1051 15.2597 16.1263 15.3473C16.1475 15.4348 16.1512 15.5257 16.1372 15.6147C16.1233 15.7037 16.0919 15.7891 16.045 15.866ZM17.391 12.871C17.2719 13.0648 17.0807 13.2035 16.8594 13.2563C16.6381 13.3092 16.4049 13.2721 16.211 13.153C13.255 11.336 8.747 10.809 5.25 11.871C5.11463 11.9139 4.97071 11.9224 4.83121 11.8958C4.69172 11.8693 4.56102 11.8084 4.45091 11.7187C4.3408 11.629 4.25473 11.5134 4.20046 11.3821C4.14618 11.2509 4.12541 11.1083 4.14 10.967C4.15708 10.7973 4.22433 10.6366 4.33316 10.5054C4.44198 10.3741 4.58745 10.2782 4.751 10.23C8.747 9.018 13.713 9.605 17.108 11.692C17.204 11.7508 17.2875 11.8279 17.3537 11.919C17.4199 12.0101 17.4675 12.1134 17.4938 12.2229C17.5201 12.3323 17.5246 12.4459 17.5069 12.5572C17.4893 12.6684 17.4499 12.775 17.391 12.871ZM17.507 9.752C13.961 7.646 8.112 7.452 4.727 8.48C4.4679 8.55246 4.19073 8.52056 3.95486 8.39114C3.71899 8.26171 3.5432 8.04506 3.46513 7.78759C3.38707 7.53013 3.41295 7.25232 3.53722 7.01371C3.6615 6.77509 3.87429 6.59463 4.13 6.511C8.016 5.331 14.475 5.559 18.557 7.982C18.7917 8.12124 18.9615 8.34802 19.029 8.61244C19.0965 8.87687 19.0562 9.15728 18.917 9.392C18.7778 9.62672 18.551 9.79651 18.2866 9.86402C18.0221 9.93153 17.7417 9.89124 17.507 9.752Z" fill="black"/>
</svg>
