<svg width="24" height="24" viewBox="0 0 24 24" fill="none" xmlns="http://www.w3.org/2000/svg">
<path d="M24 12.3282V12.2857C23.9991 15.2843 23.9842 15.7064 23.928 16.948C23.728 21.306 21.31 23.728 16.948 23.928C15.667 23.986 15.259 24 12 24H24V12.3282ZM11.7192 2.163C8.77243 2.16375 8.37804 2.17671 7.15002 2.23302C3.89802 2.38098 2.379 3.924 2.23098 7.152C2.17473 8.37905 2.16268 8.77339 2.16204 11.7201V12.2819C2.16279 15.2296 2.1757 15.6229 2.23098 16.85C2.38002 20.075 3.89502 21.621 7.15002 21.769C8.39068 21.8258 8.77854 21.8385 11.811 21.839H12.1889C15.2195 21.8385 15.6093 21.8259 16.849 21.769C20.109 21.62 21.62 20.07 21.768 16.849C21.8242 15.622 21.8372 15.2285 21.838 12.2809V11.8111C21.8374 8.78046 21.8239 8.39164 21.768 7.15098C21.619 3.924 20.104 2.38002 16.849 2.232C15.621 2.17671 15.2275 2.16375 12.2808 2.16305L11.7192 2.163ZM12 5.838C15.403 5.838 18.162 8.59698 18.162 12C18.162 15.403 15.403 18.163 12 18.163C8.59698 18.163 5.838 15.4039 5.838 12C5.838 8.59698 8.59698 5.838 12 5.838ZM12 7.99998C9.79098 7.99998 7.99998 9.79098 7.99998 12C7.99998 14.21 9.79098 16 12 16C14.209 16 16 14.21 16 12C16 9.79098 14.209 7.99998 12 7.99998ZM5.59398 4.155C6.39 4.155 7.035 4.8 7.035 5.595C7.035 6.39 6.39 7.035 5.59398 7.035C4.79898 7.035 4.155 6.39 4.155 5.595C4.155 4.8 4.79898 4.155 5.59398 4.155ZM-2.38419e-07 12V24H12C8.74098 24 8.33196 23.986 7.05198 23.928C2.69802 23.728 0.27 21.31 0.073018 16.948C0.0139287 15.668 -2.38419e-07 15.259 -2.38419e-07 12ZM0.0719994 7.053C0.268017 2.69898 2.68896 0.273 7.05102 0.0730179C8.29355 0.01575 8.7157 0.000857143 11.7143 0H-2.38419e-07V12C-2.38419e-07 8.74098 0.0139816 8.33304 0.0719994 7.053ZM24 0H12.2857C15.2842 0.000857143 15.7054 0.01575 16.947 0.072C21.305 0.271982 23.727 2.69004 23.927 7.05198C23.984 8.28868 23.999 8.71179 24 11.6718V0Z" fill="#222326"/>
</svg>
