<svg width="132" height="42" viewBox="0 0 132 42" fill="none" xmlns="http://www.w3.org/2000/svg">
<path fill-rule="evenodd" clip-rule="evenodd" d="M129.836 20.5336C129.553 20.5345 129.273 20.4759 129.012 20.3614C128.75 20.2468 128.512 20.0785 128.313 19.8661C128.113 19.6537 127.954 19.4014 127.847 19.1237C127.739 18.8461 127.684 18.5486 127.685 18.2484C127.685 16.9942 128.638 15.9497 129.849 15.9497C130.132 15.9488 130.412 16.0074 130.674 16.1219C130.935 16.2365 131.173 16.4048 131.373 16.6172C131.572 16.8296 131.731 17.0819 131.839 17.3596C131.946 17.6372 132.001 17.9347 132 18.235C132 18.8442 131.772 19.4285 131.366 19.8595C130.961 20.2906 130.41 20.533 129.836 20.5336ZM129.849 16.1774C129.593 16.1753 129.339 16.2275 129.102 16.331C128.865 16.4345 128.65 16.5872 128.469 16.7801C128.288 16.973 128.146 17.2022 128.05 17.4544C127.954 17.7065 127.906 17.9764 127.91 18.2484C127.91 19.3865 128.739 20.3037 129.836 20.3037C130.092 20.3055 130.346 20.2532 130.583 20.1497C130.819 20.0462 131.034 19.8937 131.215 19.7011C131.395 19.5085 131.538 19.2796 131.634 19.0279C131.73 18.7762 131.778 18.5066 131.775 18.235C131.779 17.9647 131.732 17.6964 131.637 17.4457C131.541 17.1951 131.4 16.9672 131.22 16.7755C131.041 16.5837 130.827 16.4321 130.592 16.3293C130.356 16.2266 130.103 16.175 129.849 16.1774ZM130.324 18.4693L130.934 19.3753H130.421L129.874 18.5452H129.401V19.3753H128.972V16.9763H129.981C130.505 16.9763 130.85 17.262 130.85 17.7418C130.85 18.1345 130.635 18.3756 130.324 18.4693ZM129.962 17.3869H129.401V18.1457H129.962C130.242 18.1457 130.408 18.0006 130.408 17.7663C130.408 17.5208 130.24 17.3869 129.962 17.3869ZM103.038 9.53146C102.457 9.53116 101.899 9.77611 101.487 10.2124C101.076 10.6487 100.844 11.2406 100.844 11.858C100.844 12.4753 101.075 13.0675 101.486 13.5042C101.897 13.9409 102.455 14.1864 103.036 14.1867C103.618 14.1867 104.176 13.9414 104.588 13.5046C104.999 13.0679 105.231 12.4756 105.231 11.858C105.231 11.2403 104.999 10.648 104.588 10.2113C104.176 9.77457 103.618 9.52922 103.036 9.52922M104.55 15.9787H101.493C101.434 15.9793 101.377 16.0048 101.335 16.0495C101.293 16.0942 101.27 16.1546 101.27 16.2175V30.3797C101.27 30.5136 101.369 30.6185 101.493 30.6185H104.552C104.612 30.6185 104.669 30.5933 104.711 30.5486C104.754 30.5038 104.777 30.443 104.777 30.3797V16.2175C104.777 16.1542 104.754 16.0935 104.711 16.0487C104.669 16.0039 104.61 15.9787 104.55 15.9787ZM111.351 15.9921V15.5458C111.351 14.2247 111.828 13.6355 112.898 13.6355C113.535 13.6355 114.046 13.7694 114.623 13.9747C114.656 13.9869 114.692 13.9902 114.728 13.9845C114.763 13.9788 114.797 13.9642 114.825 13.9419C114.854 13.9195 114.878 13.8902 114.894 13.8563C114.909 13.8224 114.918 13.785 114.917 13.7471V11.0133C114.917 10.9622 114.901 10.9125 114.872 10.8715C114.844 10.8306 114.803 10.8005 114.757 10.7857C113.933 10.5184 113.075 10.3874 112.213 10.3973C109.389 10.3973 107.896 12.0867 107.896 15.2802V15.9676H106.426C106.367 15.9676 106.31 15.9924 106.268 16.0367C106.225 16.081 106.202 16.1412 106.201 16.2041V19.0094C106.201 19.141 106.302 19.2481 106.426 19.2481H107.896V30.3842C107.896 30.5136 107.995 30.6207 108.119 30.6207H111.178C111.238 30.6201 111.294 30.5947 111.336 30.55C111.378 30.5053 111.401 30.4449 111.401 30.3819V19.2459H114.257L118.633 30.3819C118.136 31.5491 117.649 31.7834 116.982 31.7834C116.442 31.7834 115.874 31.6116 115.293 31.2746C115.267 31.2593 115.237 31.2499 115.207 31.2468C115.176 31.2437 115.146 31.2471 115.117 31.2567C115.087 31.2674 115.06 31.2843 115.038 31.3066C115.015 31.3289 114.997 31.356 114.984 31.3862L113.948 33.7986C113.924 33.8531 113.92 33.9153 113.937 33.9725C113.955 34.0297 113.993 34.0777 114.042 34.1066C115.125 34.7292 116.103 34.9948 117.31 34.9948C119.568 34.9948 120.817 33.879 121.917 30.8729L127.225 16.318C127.238 16.2819 127.244 16.2428 127.24 16.204C127.236 16.1653 127.223 16.1282 127.203 16.0959C127.182 16.0637 127.154 16.0374 127.122 16.0192C127.089 16.0011 127.053 15.9918 127.016 15.9921H123.833C123.786 15.9927 123.741 16.0084 123.704 16.0371C123.666 16.0659 123.638 16.1063 123.623 16.1528L120.359 26.0413L116.784 16.1461C116.768 16.101 116.74 16.0621 116.703 16.0346C116.666 16.0071 116.621 15.9923 116.576 15.9921H111.351ZM99.6235 15.9787H96.259V12.3255C96.259 12.2943 96.2532 12.2633 96.2419 12.2345C96.2305 12.2056 96.2139 12.1794 96.193 12.1574C96.1721 12.1354 96.1473 12.1181 96.12 12.1063C96.0927 12.0946 96.0635 12.0887 96.034 12.0889H92.9745C92.9155 12.0895 92.8592 12.1146 92.8175 12.1589C92.7758 12.2031 92.7521 12.2629 92.7516 12.3255V15.9787H91.2796C91.2502 15.9787 91.221 15.9849 91.1938 15.997C91.1667 16.009 91.142 16.0266 91.1213 16.0488C91.1005 16.071 91.0842 16.0974 91.0731 16.1263C91.062 16.1553 91.0565 16.1863 91.0567 16.2175V19.0071C91.0567 19.1388 91.1577 19.2459 91.2796 19.2459H92.7516V26.4631C92.7516 29.3821 94.1184 30.8595 96.8184 30.8595C97.916 30.8595 98.8244 30.6207 99.6823 30.1052C99.717 30.0845 99.7458 30.0543 99.7658 30.0179C99.7857 29.9814 99.7961 29.9399 99.7959 29.8977V27.242C99.7964 27.2012 99.7871 27.1611 99.7687 27.1253C99.7503 27.0895 99.7235 27.0594 99.6909 27.0379C99.6584 27.0163 99.6211 27.0041 99.5828 27.0023C99.5444 27.0005 99.5063 27.0093 99.4721 27.0277C98.8833 27.3424 98.3134 27.4875 97.6763 27.4875C96.6943 27.4875 96.2569 27.0166 96.2569 25.9565V19.2459H99.6214C99.651 19.2462 99.6804 19.2402 99.7078 19.2283C99.7352 19.2164 99.7601 19.1989 99.7811 19.1766C99.802 19.1544 99.8186 19.128 99.8298 19.0989C99.841 19.0697 99.8466 19.0386 99.8464 19.0071V16.2175C99.8466 16.1863 99.8411 16.1553 99.83 16.1263C99.8189 16.0974 99.8026 16.071 99.7818 16.0488C99.7611 16.0266 99.7364 16.009 99.7093 15.997C99.6821 15.9849 99.6529 15.9787 99.6235 15.9787ZM83.493 15.6819C79.3716 15.6819 76.1396 19.0518 76.1396 23.3522C76.1396 27.608 79.3485 30.9399 83.4426 30.9399C87.5787 30.9399 90.8191 27.5834 90.8191 23.2986C90.8191 19.0272 87.6019 15.6819 83.493 15.6819ZM83.493 27.6481C81.2998 27.6481 79.6449 25.778 79.6449 23.2964C79.6449 20.8081 81.2431 19.0027 83.4426 19.0027C85.6505 19.0027 87.3117 20.8728 87.3117 23.3544C87.3117 25.8427 85.7073 27.6481 83.493 27.6481ZM68.7441 15.6819C67.0198 15.6819 65.6068 16.4028 64.4418 17.8779V16.2175C64.4418 16.1546 64.4184 16.0942 64.3767 16.0495C64.3349 16.0048 64.2782 15.9793 64.2189 15.9787H61.1594C61.1001 15.9793 61.0434 16.0048 61.0017 16.0495C60.9599 16.0942 60.9365 16.1546 60.9365 16.2175V34.6734C60.9365 34.8029 61.0374 34.91 61.1594 34.91H64.2189C64.2779 34.9094 64.3343 34.8843 64.3759 34.8401C64.4176 34.7958 64.4413 34.736 64.4418 34.6734V28.8488C65.6089 30.2346 67.022 30.9131 68.7441 30.9131C71.9446 30.9131 75.1849 28.2976 75.1849 23.2986C75.1849 18.2997 71.9467 15.6819 68.7441 15.6819ZM71.6291 23.2986C71.6291 25.8427 70.1509 27.6214 68.0355 27.6214C65.9432 27.6214 64.3661 25.7624 64.3661 23.2986C64.3661 20.8349 65.9432 18.9759 68.0355 18.9759C70.1172 18.9759 71.6291 20.7925 71.6291 23.2986ZM53.8901 19.2593C50.4752 18.3934 49.8675 17.7864 49.8675 16.5121C49.8675 15.307 50.9357 14.4969 52.5254 14.4969C54.0646 14.4969 55.5933 15.1106 57.1935 16.3782C57.2174 16.3969 57.2445 16.4104 57.2733 16.418C57.3021 16.4255 57.332 16.4269 57.3613 16.4222C57.3906 16.4174 57.4188 16.4065 57.4441 16.3902C57.4694 16.3738 57.4915 16.3523 57.509 16.3269L59.1786 13.8296C59.211 13.7803 59.2247 13.7198 59.2169 13.6602C59.2091 13.6006 59.1804 13.5464 59.1365 13.5083C57.2314 11.8836 55.0845 11.0959 52.5758 11.0959C48.8855 11.0959 46.3096 13.4436 46.3096 16.8067C46.3096 20.4108 48.5322 21.6874 52.374 22.6715C55.6417 23.4705 56.1947 24.14 56.1947 25.3384C56.1947 26.664 55.0803 27.4875 53.2824 27.4875C51.2889 27.4875 49.6635 26.7733 47.8425 25.104C47.7969 25.0629 47.7381 25.0421 47.6785 25.046C47.6488 25.0485 47.6199 25.0572 47.5936 25.0718C47.5672 25.0864 47.5438 25.1064 47.525 25.1308L45.6535 27.4919C45.6153 27.539 45.5963 27.6002 45.6006 27.6621C45.605 27.7241 45.6323 27.7816 45.6766 27.8222C47.7386 29.8048 50.4244 30.8977 53.2067 30.8863C57.1809 30.8863 59.7505 28.581 59.7505 25.0148C59.7505 21.9998 58.0536 20.3327 53.8901 19.2571M19.7872 0C14.5393 0 9.50634 2.21249 5.79553 6.15076C2.08471 10.089 0 15.4305 0 21C0 26.5695 2.08471 31.911 5.79553 35.8492C9.50634 39.7875 14.5393 42 19.7872 42C25.0351 42 30.068 39.7875 33.7788 35.8492C37.4896 31.911 39.5743 26.5695 39.5743 21C39.5743 15.4305 37.4896 10.089 33.7788 6.15076C30.068 2.21249 25.0351 0 19.7872 0ZM28.8628 30.2882C28.7785 30.4353 28.6677 30.5632 28.5367 30.6647C28.4057 30.7662 28.2571 30.8393 28.0994 30.8797C27.9418 30.9202 27.7782 30.9272 27.6179 30.9003C27.4577 30.8735 27.3041 30.8134 27.1658 30.7234C22.5187 27.7106 16.673 27.03 9.78424 28.6993C9.62643 28.7375 9.46306 28.7424 9.30347 28.7136C9.14387 28.6849 8.99118 28.623 8.85411 28.5316C8.71704 28.4402 8.59827 28.3211 8.50458 28.181C8.41089 28.0409 8.34412 27.8826 8.30809 27.7151C8.27205 27.5476 8.26745 27.3742 8.29455 27.2048C8.32165 27.0355 8.37992 26.8734 8.46603 26.7279C8.55214 26.5825 8.66441 26.4564 8.79642 26.357C8.92843 26.2576 9.0776 26.1867 9.23541 26.1485C16.7718 24.3185 23.2378 25.1063 28.4527 28.4895C29.0331 28.8666 29.216 29.6723 28.8628 30.2882ZM31.281 24.5707C31.067 24.9401 30.7237 25.2045 30.3264 25.3057C29.929 25.4069 29.5101 25.3368 29.1614 25.1107C23.8434 21.6405 15.7351 20.6362 9.44359 22.6626C9.0608 22.759 8.65779 22.6968 8.3167 22.4887C7.9756 22.2807 7.72211 21.9424 7.60788 21.5429C7.49366 21.1433 7.5273 20.7126 7.70194 20.3385C7.87659 19.9643 8.1791 19.675 8.54781 19.5293C15.7351 17.2151 24.6677 18.3376 30.7742 22.3189C30.9472 22.4314 31.0975 22.5789 31.2167 22.7531C31.3359 22.9272 31.4216 23.1246 31.4688 23.334C31.5161 23.5433 31.524 23.7605 31.4921 23.9731C31.4603 24.1856 31.3892 24.3895 31.2831 24.5729M31.4934 18.6166C25.1135 14.5973 14.5912 14.2269 8.50365 16.1908C8.27003 16.2698 8.02394 16.2989 7.77966 16.2761C7.53539 16.2534 7.2978 16.1794 7.08072 16.0584C6.86364 15.9373 6.67139 15.7717 6.51514 15.5712C6.35889 15.3706 6.24176 15.1391 6.17056 14.89C6.09935 14.641 6.0755 14.3794 6.10038 14.1205C6.12525 13.8616 6.19837 13.6106 6.31547 13.3819C6.43258 13.1533 6.59133 12.9516 6.78252 12.7886C6.9737 12.6257 7.19349 12.5047 7.42913 12.4326C14.4167 10.1786 26.0366 10.616 33.3774 15.2401C33.7996 15.5058 34.105 15.9387 34.2265 16.4434C34.3479 16.9481 34.2755 17.4834 34.0251 17.9315C33.7747 18.3795 33.3668 18.7036 32.8913 18.8325C32.4157 18.9614 31.9113 18.8846 31.4891 18.6188" fill="black"/>
</svg>
